<svg width="18" height="16" viewBox="0 0 18 16" fill="none" xmlns="http://www.w3.org/2000/svg">
<path fill-rule="evenodd" clip-rule="evenodd" d="M16.1225 1.06C15.9662 0.903772 15.7543 0.81601 15.5333 0.81601C15.3124 0.81601 15.1004 0.903772 14.9442 1.06L10.4742 5.53H0.666656V7.19667H0.673323C0.85499 11.6383 4.51332 15.1842 8.99999 15.1842C13.4867 15.1842 17.145 11.6383 17.3267 7.19667H17.3333V5.53H12.8308L16.1225 2.23833C16.2787 2.08206 16.3665 1.87014 16.3665 1.64917C16.3665 1.42819 16.2787 1.21627 16.1225 1.06ZM10.8142 7.19667H15.6583C15.5728 8.90495 14.834 10.515 13.5947 11.6939C12.3554 12.8727 10.7104 13.5301 8.99999 13.5301C7.28957 13.5301 5.64458 12.8727 4.40527 11.6939C3.16596 10.515 2.42715 8.90495 2.34166 7.19667H10.8133H10.8142Z" fill="white"/>
</svg>
